# xmcd
#
# Track frame offsets:
#	150
#	20901
#	44253
#	66314
#	83553
#	104533
#	120521
#	143785
#	164677
#	183862
#	207411
#	224141
#
# Disc length: 3221
#
# Revision: 1
# Processed by: cddbd v1.5.1PL0 Copyright (c) Steve Scherf et al.
# Submitted via: FreeRIP 2.80 
# Normalized: r0:TDELIM( - )
#
DISCID=b70c930c
DTITLE=Various Artist - Cinta Sonata Lagi - Disc 1
DYEAR=1900
DGENRE=
TTITLE0=Jamal Abdillah - Aku
TTITLE1=Ella - Retak
TTITLE2=Exists - Jesnita
TTITLE3=Flop Poppy - Cinta
TTITLE4=Trio - Bukan Simpati
TTITLE5=Sheri Aida - Salahkah Aku
TTITLE6=SM Salim and Sheila Majid - Entah Ke Jadi, Ehtahkan Tidak
TTITLE7=Hazami - Ku Cinta Padamu
TTITLE8=Siti Sarah - Kesetiaan
TTITLE9=Baggio - Umpama Mimpi Dalam Mimpi
TTITLE10=KRU - Perpisahan Terasing
TTITLE11=OST Cinta KLCC - Cinta Mencintai Kita
EXTD=
EXTT0=
EXTT1=
EXTT2=
EXTT3=
EXTT4=
EXTT5=
EXTT6=
EXTT7=
EXTT8=
EXTT9=
EXTT10=
EXTT11=
PLAYORDER=
